<?xml version="1.0" encoding="UTF-8" standalone="no"?>
<!-- Created with Inkscape (http://www.inkscape.org/) -->

<svg
   xmlns:dc="http://purl.org/dc/elements/1.1/"
   xmlns:cc="http://creativecommons.org/ns#"
   xmlns:rdf="http://www.w3.org/1999/02/22-rdf-syntax-ns#"
   xmlns:svg="http://www.w3.org/2000/svg"
   xmlns="http://www.w3.org/2000/svg"
   xmlns:sodipodi="http://sodipodi.sourceforge.net/DTD/sodipodi-0.dtd"
   xmlns:inkscape="http://www.inkscape.org/namespaces/inkscape"
   version="1.1"
   id="svg58261"
   width="1463"
   height="878"
   viewBox="0 0 1463 878"
   sodipodi:docname="logovector.svg"
   inkscape:version="0.92.2 (5c3e80d, 2017-08-06)">
  <metadata
     id="metadata58267">
    <rdf:RDF>
      <cc:Work
         rdf:about="">
        <dc:format>image/svg+xml</dc:format>
        <dc:type
           rdf:resource="http://purl.org/dc/dcmitype/StillImage" />
        <dc:title></dc:title>
      </cc:Work>
    </rdf:RDF>
  </metadata>
  <defs
     id="defs58265">
    <clipPath
       clipPathUnits="userSpaceOnUse"
       id="clipPath53484">
      <path
         d="m 327.88,499.748 h 166.6 V 305.194 h -166.6 z"
         id="path53482"
         inkscape:connector-curvature="0" />
    </clipPath>
  </defs>
  <sodipodi:namedview
     pagecolor="#ffffff"
     bordercolor="#666666"
     borderopacity="1"
     objecttolerance="10"
     gridtolerance="10"
     guidetolerance="10"
     inkscape:pageopacity="0"
     inkscape:pageshadow="2"
     inkscape:window-width="1366"
     inkscape:window-height="705"
     id="namedview58263"
     showgrid="false"
     inkscape:zoom="0.44375"
     inkscape:cx="328.65963"
     inkscape:cy="525.9188"
     inkscape:window-x="-8"
     inkscape:window-y="-8"
     inkscape:window-maximized="1"
     inkscape:current-layer="svg58261" />
  <g
     id="g58542"
     transform="translate(36.056338,26)">
    <path
       inkscape:connector-curvature="0"
       id="path58271"
       d="m 355.2116,860.27735 c -1.92402,-0.37827 -2.7019,-1.36188 -2.7019,-3.41645 0,-3.15898 -2.58335,-7.69192 -6.85678,-12.03144 -1.68427,-1.71032 -2.74997,-4.22906 -2.74997,-6.49947 0,-3.7541 -5.60747,-13.65489 -9.6875,-17.10467 -3.22303,-2.72517 -17.67539,-32.67996 -19.55471,-40.53022 -2.20446,-9.20847 -12.49977,-29.02602 -16.2536,-31.2868 -0.63906,-0.38485 -1.81268,-2.66711 -2.60807,-5.07166 -0.79539,-2.40456 -4.68447,-7.7947 -8.64238,-11.97811 -9.25153,-9.77866 -11.70417,-12.54952 -15.53683,-17.55281 -1.72558,-2.25261 -5.85758,-6.98062 -9.18224,-10.50667 -3.32465,-3.52605 -7.18267,-8.63115 -8.57336,-11.34466 -1.3907,-2.7135 -4.36153,-6.03758 -6.60184,-7.38682 -2.24034,-1.34926 -4.24377,-3.28939 -4.45208,-4.31143 -0.34939,-1.71421 -4.03937,-4.62888 -19.73985,-15.59219 -3.22115,-2.24926 -8.63748,-6.92989 -12.03631,-10.4014 l -6.1797,-6.31184 -7.02959,2.74212 c -3.86628,1.50815 -7.66484,3.19285 -8.44124,3.74378 -2.68753,1.90705 -24.40652,8.90193 -24.40652,7.86044 0,-0.5752 -2.16151,-4.05272 -4.80337,-7.72782 -2.64187,-3.67509 -4.80338,-7.30046 -4.80338,-8.05636 0,-2.0428 -7.24349,-15.79044 -8.31982,-15.79044 -1.01972,0 -2.48778,17.09037 -2.48778,28.96135 0,4.90061 -0.69241,8.68067 -1.97877,10.80271 -1.89597,3.12769 -1.81809,3.7227 1.86192,14.22279 2.11236,6.02719 4.3858,13.85475 5.05206,17.39456 0.66628,3.53983 1.98993,9.11524 2.94147,12.38982 2.3486,8.08234 2.17539,13.3369 -0.67162,20.37543 -2.85062,7.04746 -3.0481,11.59193 -0.6386,14.69623 0.96967,1.24931 1.78024,4.75464 1.80126,7.78963 0.0642,9.27798 3.46227,30.03515 7.23817,44.2148 1.97094,7.40143 4.4539,17.14324 5.51769,21.64846 1.0638,4.50522 2.96056,10.44339 4.215,13.1959 2.65929,5.83501 2.91889,13.97008 0.54327,17.02427 -2.39928,3.08465 -22.41922,4.24191 -28.35894,1.63931 -6.33886,-2.77751 -21.67922,-3.65348 -26.8822,-1.53503 -2.35134,0.95737 -7.65009,2.05456 -11.77503,2.4382 -4.12493,0.38364 -10.916699,1.26629 -15.092813,1.96141 -5.451135,0.90738 -7.960332,0.90587 -8.895396,-0.006 -1.607467,-1.56644 0.847169,-4.87896 3.615364,-4.87896 1.013932,0 4.595336,-2.05467 7.958673,-4.56595 3.363315,-2.51126 8.006472,-5.39689 10.318082,-6.4125 2.31164,-1.01561 5.01354,-2.33484 6.00423,-2.93162 0.9907,-0.5968 3.9628,-1.65205 6.60464,-2.34501 2.81884,-0.73939 7.08181,-3.37307 10.31808,-6.37453 5.0947,-4.72508 5.57437,-5.67099 6.29828,-12.4202 0.61423,-5.72655 0.11085,-10.12635 -2.32878,-20.35588 -3.5668,-14.95564 -7.56173,-27.46649 -9.05833,-28.36782 -0.56447,-0.33913 -1.02628,-1.58526 -1.02628,-2.76837 0,-1.18312 -1.81477,-5.75965 -4.03281,-10.17009 -4.49724,-8.94243 -10.37733,-26.48643 -10.37733,-30.96209 0,-4.2719 -4.54273,-24.01776 -7.258056,-31.54848 -1.291785,-3.58267 -2.348705,-8.91434 -2.348705,-11.84814 0,-13.91798 -2.05706,-15.60666 -17.124973,-14.05822 l -9.608643,0.98742 1.058148,-16.46371 c 0.581986,-9.05504 0.881065,-26.7321 0.664623,-39.28235 -0.216452,-12.55026 0.186264,-35.82528 0.894931,-51.72225 1.199408,-26.90555 2.029716,-33.62034 6.771806,-54.76478 0.938232,-4.18341 1.368421,-8.82969 0.955967,-10.32505 -0.971503,-3.52229 1.691181,-11.59149 5.214158,-15.8014 2.669364,-3.18982 2.768077,-4.08416 2.768077,-25.07594 0,-21.08813 -0.509552,-25.06992 -4.347025,-33.96842 -0.911458,-2.11355 -1.6572,-4.97581 -1.6572,-6.36061 0,-1.38479 -1.005894,-3.60491 -2.23534,-4.93359 -2.839918,-3.06917 -4.969725,-9.2272 -4.969725,-14.36922 0,-5.65944 -1.832409,-8.32184 -7.156248,-10.39763 -3.194776,-1.24567 -6.241256,-3.95777 -9.809926,-8.73321 -5.030664,-6.73181 -5.218134,-6.85276 -6.671283,-4.30372 -0.822345,1.4425 -1.514324,3.57829 -1.537715,4.74619 -0.104509,5.2162 -9.921319,25.04691 -17.026379,34.39468 -3.518214,4.62875 -4.631397,7.19266 -4.631397,10.66726 0,5.73433 -7.591167,28.32764 -10.124292,30.13264 -1.036266,0.73839 -1.884125,1.88213 -1.884125,2.54166 0,0.65953 -1.486042,2.09713 -3.302355,3.19467 -1.8162152,1.09753 -6.9672911,5.74707 -11.4467728,10.33231 -7.0906012,7.258 -8.0498642,8.75682 -7.4129306,11.58279 0.4024027,1.78531 1.2304371,3.54642 1.8400801,3.91359 2.0435384,1.23073 1.278177,9.68213 -0.9888059,10.91839 -1.8318918,0.99899 -1.9106078,1.6259 -0.6219793,4.9527 1.1948717,3.08469 1.1638961,4.41749 -0.1630125,7.0094 -0.928105,1.81284 -1.185865,3.6415 -0.594505,4.21771 1.1967569,1.1662 -4.339343,9.70704 -6.292002,9.70704 -0.701956,0 -2.97912,-0.75932 -5.060304,-1.68737 -2.081183,-0.92805 -5.107581,-1.84957 -6.725294,-2.04782 -1.838377,-0.22529 -3.813199,-1.81927 -5.266369,-4.25061 -2.07821,-3.47726 -2.183042,-4.65723 -0.987718,-11.11679 1.870161,-10.10632 3.720057,-16.89352 6.275517,-23.02414 1.207208,-2.89621 2.541497,-10.0051 2.965157,-15.79752 1.092022,-14.93138 5.691463,-34.31811 9.990457,-42.10941 1.415159,-2.56489 2.573108,-5.29934 2.573108,-6.0766 0,-1.84832 4.5100048,-9.53515 7.773454,-13.24882 6.2172511,-7.07518 8.6678792,-12.29636 9.3369523,-19.89318 0.7006089,-7.95441 6.6790077,-22.71311 10.2237267,-25.2389 1.019426,-0.72637 1.456683,-1.94536 0.971955,-2.70963 -1.828099,-2.8823 -2.930119,-16.06549 -1.967516,-23.53584 1.365264,-10.59569 5.987051,-19.59353 12.323905,-23.9927 8.535928,-5.92582 19.284215,-11.11678 23.018127,-11.11678 2.450639,0 4.574122,-1.11652 6.851998,-3.60276 1.81545,-1.98152 5.376126,-4.25609 7.912602,-5.05459 2.536476,-0.79852 7.971289,-2.99501 12.077361,-4.8811 7.065325,-3.2454 7.465153,-3.64885 7.457622,-7.52491 -0.0043,-2.25261 -0.84745,-8.04503 -1.87347,-12.87206 -1.026019,-4.82702 -2.128007,-12.59414 -2.448893,-17.26026 -0.589442,-8.57167 -1.145817,-9.6232 -3.749395,-7.08609 -1.111954,1.08357 -2.009934,0.79577 -3.994765,-1.2803 -2.21935,-2.32138 -2.456198,-3.54169 -1.77829,-9.16239 0.929128,-7.7036 1.344718,-8.50788 4.396284,-8.50788 1.950041,0 2.33082,-0.83173 2.33082,-5.09122 0,-2.80017 0.625168,-6.8812 1.389258,-9.06895 1.640414,-4.69681 12.211434,-15.09452 15.346144,-15.09452 1.201218,0 2.856737,-0.78987 3.678943,-1.75527 2.562758,-3.00908 15.191878,-2.31294 22.510138,1.24081 13.68386,6.64486 19.53057,16.62377 17.77273,30.33377 -0.76117,5.93664 -0.67087,6.24144 1.67189,5.64444 2.29486,-0.58479 2.47529,-0.12757 2.4601,6.23397 -0.0213,8.92178 -0.96814,12.13089 -3.57917,12.13089 -3.38458,0 -4.44165,2.35498 -5.28052,11.7642 -0.73454,8.23906 -0.59925,9.01153 1.99421,11.38576 1.53024,1.40087 4.65032,3.16477 6.93353,3.91977 2.28322,0.75501 5.50225,2.28379 7.15341,3.3973 1.65116,1.11352 6.35819,2.85981 10.46007,3.88065 4.10188,1.02085 10.31626,3.39282 13.80971,5.27105 4.43346,2.38361 8.81623,3.6429 14.51203,4.16972 10.1336,0.93725 18.79852,4.18442 24.38505,9.13828 5.11224,4.53326 11.98541,16.1647 13.11923,22.20164 0.53508,2.84903 1.90207,5.02247 3.9931,6.34882 4.76579,3.023 18.75237,16.90803 21.06714,20.91419 2.49204,4.31297 7.3326,10.90687 10.30837,14.04224 1.22168,1.28721 3.69023,5.49988 5.48567,9.3615 1.79545,3.86162 5.61271,11.06435 8.48279,16.00609 l 5.21834,8.98497 -1.89042,4.47218 c -6.1859,14.63405 -13.80716,30.03257 -16.47801,33.29332 -1.42771,1.74303 -3.94676,5.37031 -5.59793,8.06063 -3.24934,5.29435 -25.64412,26.97709 -33.83434,32.75857 -2.77376,1.95801 -6.32342,5.65203 -7.88811,8.20894 -1.5647,2.5569 -3.37781,4.64891 -4.02914,4.64891 -0.65133,0 -3.78392,2.36963 -6.96133,5.26585 -3.1774,2.89621 -6.60055,5.26583 -7.607,5.26583 -3.31843,0 -4.5661,2.73603 -2.68899,5.89666 4.27449,7.19728 9.1065,17.50986 9.11774,19.45922 0.008,1.17894 -0.67892,7.60338 -1.5238,14.27656 l -1.53616,12.13302 3.51242,2.94412 c 2.94098,2.46514 3.6376,4.12254 4.28174,10.18714 0.57564,5.41955 1.8667,8.98883 5.12818,14.17753 2.39737,3.81397 5.24445,8.77756 6.32686,11.03016 1.08242,2.25262 2.44411,4.88554 3.02602,5.85094 0.5819,0.96541 1.54394,2.83814 2.13786,4.16162 0.59391,1.32348 2.37294,3.9564 3.95339,5.85094 1.58042,1.89453 3.86432,5.65478 5.07531,8.35614 1.3685,3.05276 3.10594,5.04564 4.5909,5.26585 1.64747,0.2443 3.11025,2.24401 4.71199,6.44157 2.73357,7.16366 6.2708,11.23492 24.44954,28.14069 4.3254,4.02251 8.29173,7.31367 8.81406,7.31367 2.04492,0 10.6545,9.02575 12.83665,13.45716 1.26771,2.5744 3.16717,5.73391 4.22099,7.02112 1.05384,1.28719 3.11817,5.23657 4.58743,8.7764 1.46924,3.53982 3.40968,8.01578 4.31206,9.94659 2.86389,6.12774 5.09643,11.57578 6.47728,15.80638 0.73684,2.25748 2.69198,5.52565 4.34476,7.2626 1.6528,1.73695 3.00508,3.54265 3.00508,4.01269 0,1.1258 10.47213,23.57471 12.75006,27.33203 0.97549,1.609 2.80259,5.14749 4.06025,7.86331 3.12089,6.73932 11.44829,15.27116 17.70038,18.13497 6.62276,3.0336 9.92054,7.1457 9.92054,12.37025 0,4.40302 4.2971,14.25427 9.55104,21.8961 4.52525,6.58196 7.02969,12.2218 7.9689,17.94539 0.4445,2.70883 1.27761,5.20783 1.85131,5.55335 1.68369,1.01402 1.19716,2.83047 -0.75815,2.83047 -1.12079,0 -1.80127,1.10518 -1.80127,2.92547 0,1.91842 -0.67067,2.92546 -1.9483,2.92546 -1.65395,0 -1.70615,0.28435 -0.34554,1.88192 1.35712,1.59349 1.27787,2.11341 -0.51704,3.39237 -1.40682,1.00243 -1.63657,1.66742 -0.6831,1.97713 1.10925,0.36032 1.10127,1.07741 -0.035,3.14639 -1.11386,2.02813 -2.15734,2.51203 -4.29139,1.99008 -2.27297,-0.55591 -2.89413,-0.17877 -3.20366,1.9451 -0.39803,2.73125 -3.41515,3.53383 -9.0901,2.41808 z M 197.32612,462.96121 c 6.01502,-5.50064 8.52808,-8.51444 13.44871,-16.12834 2.28765,-3.53982 4.52635,-6.69933 4.97485,-7.02112 1.80314,-1.29374 10.67488,-19.00694 10.72407,-21.41152 0.0289,-1.41753 0.86427,-4.68366 1.85616,-7.25806 1.66661,-4.32554 5.2962,-16.39397 5.2962,-17.60991 0,-0.2904 -0.94567,-0.52842 -2.10147,-0.52892 -3.84539,-8.7e-4 -16.58502,-6.6472 -18.66066,-9.73413 -2.92292,-4.34707 -11.86047,-12.4985 -13.70385,-12.4985 -0.85764,0 -1.55936,0.77574 -1.55936,1.72387 0,0.94814 -1.37301,3.97599 -3.05115,6.72858 -5.64721,9.26291 -7.94515,15.09098 -8.58273,21.76771 -0.34877,3.6524 -1.92667,10.22656 -3.50646,14.60923 -1.57977,4.38269 -2.87232,8.87351 -2.87232,9.97961 0,1.10611 -1.80178,5.68234 -4.00397,10.16939 -2.20219,4.48707 -4.34179,10.20542 -4.7547,12.70744 -0.7063,4.28014 -0.35805,4.97206 5.88957,11.70188 3.65215,3.93399 7.80182,7.75976 9.22152,8.50171 2.93869,1.53577 4.12208,0.94345 11.38559,-5.69892 z"
       style="fill:#000000;stroke-width:1.18541658" />
    <g
       transform="matrix(4.1943269,0,0,-4.0872466,-974.2115,2044.1934)"
       id="g53560">
      <g
         clip-path="url(#clipPath53484)"
         id="g53558"
         style="opacity:0.89999402">
        <g
           transform="translate(493.0693,498.9199)"
           id="g53488">
          <path
             d="m 0,0 -163.915,-42.388 0.044,-34.67 164.263,42.483 -15.179,13.829 z"
             style="fill:#ffffff;fill-opacity:1;fill-rule:nonzero;stroke:none"
             id="path53486"
             inkscape:connector-curvature="0" />
        </g>
        <g
           transform="translate(493.0693,498.9199)"
           id="g53492">
          <path
             d="m 0,0 -163.915,-42.388 0.044,-34.67 164.263,42.483 -15.179,13.829 z"
             style="fill:none;stroke:#f8fafb;stroke-width:1;stroke-linecap:butt;stroke-linejoin:miter;stroke-miterlimit:4;stroke-dasharray:none;stroke-opacity:1"
             id="path53490"
             inkscape:connector-curvature="0" />
        </g>
        <g
           transform="translate(329.8906,398.834)"
           id="g53496">
          <path
             d="M 0,0 163.92,42.388 163.952,7.724 0.043,-34.667 Z"
             style="fill:#ffffff;fill-opacity:1;fill-rule:nonzero;stroke:none"
             id="path53494"
             inkscape:connector-curvature="0" />
        </g>
        <g
           transform="translate(329.8906,398.834)"
           id="g53500">
          <path
             d="M 0,0 163.92,42.388 163.952,7.724 0.043,-34.667 Z"
             style="fill:none;stroke:#f8fafb;stroke-width:1;stroke-linecap:butt;stroke-linejoin:miter;stroke-miterlimit:4;stroke-dasharray:none;stroke-opacity:1"
             id="path53498"
             inkscape:connector-curvature="0" />
        </g>
        <g
           transform="translate(493.0693,382.8867)"
           id="g53504">
          <path
             d="m 0,0 0.031,-34.661 -163.902,-42.386 v 1.806 l 14.785,17.328 -15.141,15.436 z"
             style="fill:#ffffff;fill-opacity:1;fill-rule:nonzero;stroke:none"
             id="path53502"
             inkscape:connector-curvature="0" />
        </g>
        <g
           transform="translate(493.0693,382.8867)"
           id="g53508">
          <path
             d="m 0,0 0.031,-34.661 -163.902,-42.386 v 1.806 l 14.785,17.328 -15.141,15.436 z"
             style="fill:none;stroke:#f8fafb;stroke-width:1;stroke-linecap:butt;stroke-linejoin:miter;stroke-miterlimit:4;stroke-dasharray:none;stroke-opacity:1"
             id="path53506"
             inkscape:connector-curvature="0" />
        </g>
        <g
           transform="translate(337.5664,422.0342)"
           id="g53512">
          <path
             d="m 0,0 54.962,-5.305 92.167,23.998 -55.264,5.239 z"
             style="fill:#f8fafb;fill-opacity:1;fill-rule:nonzero;stroke:none"
             id="path53510"
             inkscape:connector-curvature="0" />
        </g>
        <g
           transform="translate(338.1084,363.9785)"
           id="g53516">
          <path
             d="M 0,0 91.866,23.931 147.135,18.69 54.968,-5.305 Z"
             style="fill:#f8fafb;fill-opacity:1;fill-rule:nonzero;stroke:none"
             id="path53514"
             inkscape:connector-curvature="0" />
        </g>
        <text
           y="-342.28281"
           x="467.25067"
           transform="matrix(0.96976293,0.24404887,0.24404887,-0.96976293,0,0)"
           style="font-style:italic;font-variant:normal;font-weight:300;font-stretch:normal;font-size:14.92405987px;font-family:'Open Sans Light';-inkscape-font-specification:OpenSansLight-Italic;writing-mode:lr-tb;fill:#202020;fill-opacity:1;fill-rule:nonzero;stroke:none"
           id="text53520">
          <tspan
             x="467.25067"
             y="-342.28281"
             sodipodi:role="line"
             id="tspan53518">NEXTLEVEL</tspan>
        </text>
        <text
           y="-228.72597"
           x="451.42645"
           transform="matrix(0.96976194,0.24405282,0.24405282,-0.96976194,0,0)"
           style="font-style:italic;font-variant:normal;font-weight:normal;font-stretch:normal;font-size:10.85379791px;font-family:Bitter;-inkscape-font-specification:Bitter-Italic;writing-mode:lr-tb;fill:#202020;fill-opacity:1;fill-rule:nonzero;stroke:none"
           id="text53524">
          <tspan
             y="-228.72597"
             x="451.42645"
             sodipodi:role="line"
             id="tspan53522">PHYSIQUES</tspan>
        </text>
        <text
           y="-275.67908"
           x="446.30435"
           transform="matrix(0.96800774,0.25092035,0.25092035,-0.96800774,0,0)"
           style="font-style:italic;font-variant:normal;font-weight:bold;font-stretch:normal;font-size:23.7429924px;font-family:Bitter;-inkscape-font-specification:Bitter-BoldItalic;writing-mode:lr-tb;fill:#202020;fill-opacity:1;fill-rule:nonzero;stroke:none"
           id="text53528">
          <tspan
             x="446.30435"
             y="-275.67908"
             sodipodi:role="line"
             id="tspan53526">DANNYT</tspan>
        </text>
        <g
           transform="translate(474.21,417.4023)"
           id="g53532">
          <path
             d="M 0,0 -1.957,1.956 -0.186,1.217 Z M 2.728,2.698 2.571,0.785 1.472,0.232 Z m 2.153,-4.226 v 0 L 3.014,-1.971 2.148,-1.095 Z m -3.354,-3.354 -0.998,1.64 0.566,1.094 z m -4.226,2.153 1.252,1.457 1.214,-0.201 z m 2.377,-0.56 2.159,-3.546 0.957,4.04 4.04,0.958 L 3.288,0.322 3.626,4.46 0.477,1.755 -3.354,3.354 -1.755,-0.477 -4.461,-3.626 Z m 1.218,2.393 v 0 -0.001 z"
             style="fill:#202020;fill-opacity:1;fill-rule:evenodd;stroke:none"
             id="path53530"
             inkscape:connector-curvature="0" />
        </g>
        <g
           transform="translate(346.0703,384.8105)"
           id="g53536">
          <path
             d="M 0,0 -1.956,1.956 -0.185,1.217 Z M 2.729,2.698 2.572,0.785 1.473,0.233 Z m 2.153,-4.226 v 0 L 3.014,-1.971 2.148,-1.095 Z m -3.355,-3.354 -0.998,1.64 0.566,1.094 z m -4.225,2.153 1.251,1.457 1.214,-0.201 z m 2.376,-0.559 2.159,-3.547 0.958,4.04 4.04,0.958 L 3.289,0.322 3.626,4.46 0.477,1.755 -3.354,3.354 -1.755,-0.477 -4.46,-3.626 Z m 1.218,2.392 v 0 -0.001 z"
             style="fill:#202020;fill-opacity:1;fill-rule:evenodd;stroke:none"
             id="path53534"
             inkscape:connector-curvature="0" />
        </g>
        <g
           transform="translate(342.2295,433.4434)"
           id="g53540">
          <path
             d="M 0,0 125.164,31.735"
             style="fill:none;stroke:#202020;stroke-width:1;stroke-linecap:round;stroke-linejoin:miter;stroke-miterlimit:10;stroke-dasharray:1, 3;stroke-dashoffset:0;stroke-opacity:1"
             id="path53538"
             inkscape:connector-curvature="0" />
        </g>
        <g
           transform="translate(371.7559,337.876)"
           id="g53544">
          <path
             d="m 0,0 c 1.622,0.277 2.646,-0.454 3.3,-1.935 0.68,-1.521 -0.166,-3.247 -1.224,-4.338 -2.748,-2.84 -8.315,-2.943 -11.292,-0.519 -2.667,2.172 -3.592,6.584 0.345,7.905 1.45,0.487 2.739,0.098 3.607,-1.123 0.808,-1.133 0.333,-2.726 -0.923,-3.172 -0.84,-0.297 -1.185,1.042 -0.352,1.336 0.408,0.963 0.092,1.557 -0.949,1.776 -0.346,-0.005 -0.691,-0.057 -1.03,-0.156 -1.072,-0.246 -1.647,-1.133 -1.709,-2.188 -0.131,-2.232 2.215,-3.806 4.06,-4.383 2.02,-0.638 3.837,-0.24 5.728,0.565 0.705,0.302 1.327,0.718 1.865,1.271 0.989,1.024 1.051,3.986 -1.073,3.625 C -0.519,-1.483 -0.88,-0.149 0,0"
             style="fill:#202020;fill-opacity:1;fill-rule:nonzero;stroke:none"
             id="path53542"
             inkscape:connector-curvature="0" />
        </g>
        <g
           transform="translate(366.2666,329.5566)"
           id="g53548">
          <path
             d="M 0,0 C -1.478,0.304 -2.796,0.663 -4.326,0.701 -5.142,0.722 -5.878,0.423 -6.463,-0.136 -6.964,-0.7 -7.094,-1.345 -6.858,-2.073 c 0.521,-1.119 2.239,-0.311 1.891,0.067 -0.599,0.657 0.371,1.636 0.975,0.978 1.134,-1.231 0.377,-2.5 -1.052,-3.009 -1.61,-0.576 -3.049,0.762 -3.344,2.25 -0.282,1.428 0.972,3.033 2.241,3.51 2.197,0.828 4.351,0.053 6.515,-0.39 C 1.24,1.152 0.87,-0.174 0,0"
             style="fill:#202020;fill-opacity:1;fill-rule:nonzero;stroke:none"
             id="path53546"
             inkscape:connector-curvature="0" />
        </g>
        <g
           transform="translate(447.6299,357.9014)"
           id="g53552">
          <path
             d="m 0,0 c -1.548,-0.559 -2.078,-1.7 -1.916,-3.311 0.159,-1.659 1.747,-2.742 3.206,-3.168 3.792,-1.115 8.685,1.543 10.076,5.121 1.248,3.204 -0.124,7.499 -4.2,6.705 C 5.664,5.055 4.735,4.079 4.583,2.59 4.439,1.206 5.639,0.054 6.95,0.287 7.829,0.442 7.467,1.778 6.598,1.622 5.768,2.259 5.75,2.931 6.547,3.636 6.851,3.801 7.176,3.927 7.52,4.008 8.573,4.323 9.512,3.835 10.086,2.947 11.302,1.07 10.037,-1.455 8.718,-2.867 7.275,-4.419 5.499,-4.971 3.457,-5.203 2.695,-5.287 1.948,-5.233 1.208,-5.018 -0.158,-4.615 -1.674,-2.069 0.352,-1.335 1.183,-1.033 0.839,0.305 0,0"
             style="fill:#202020;fill-opacity:1;fill-rule:nonzero;stroke:none"
             id="path53550"
             inkscape:connector-curvature="0" />
        </g>
        <g
           transform="translate(456.5088,353.376)"
           id="g53556">
          <path
             d="M 0,0 C 1.137,0.992 2.105,1.956 3.418,2.744 4.116,3.164 4.904,3.269 5.688,3.07 6.403,2.827 6.834,2.33 6.989,1.581 7.088,0.35 5.194,0.206 5.311,0.705 5.508,1.573 4.18,1.945 3.98,1.075 3.602,-0.555 4.886,-1.286 6.38,-1.023 8.065,-0.729 8.656,1.144 8.178,2.584 7.718,3.965 5.836,4.743 4.497,4.531 2.178,4.167 0.687,2.431 -0.978,0.977 -1.647,0.39 -0.671,-0.582 0,0"
             style="fill:#202020;fill-opacity:1;fill-rule:nonzero;stroke:none"
             id="path53554"
             inkscape:connector-curvature="0" />
        </g>
      </g>
    </g>
    <path
       inkscape:connector-curvature="0"
       id="path58271-4"
       d="m 1039.0679,860.33337 c 1.924,-0.37827 2.7019,-1.36188 2.7019,-3.41645 0,-3.15898 2.5834,-7.69192 6.8568,-12.03143 1.6843,-1.71033 2.75,-4.22907 2.75,-6.49948 0,-3.7541 5.6074,-13.65489 9.6875,-17.10467 3.223,-2.72517 17.6754,-32.67996 19.5547,-40.53021 2.2044,-9.20848 12.4997,-29.02603 16.2535,-31.28681 0.6391,-0.38485 1.8128,-2.66711 2.6081,-5.07166 0.7955,-2.40455 4.6845,-7.7947 8.6424,-11.97811 9.2515,-9.77866 11.7042,-12.54952 15.5368,-17.55281 1.7256,-2.25261 5.8577,-6.98061 9.1822,-10.50667 3.3247,-3.52605 7.1827,-8.63114 8.5734,-11.34466 1.3907,-2.7135 4.3616,-6.03758 6.6019,-7.38682 2.2403,-1.34926 4.2438,-3.28939 4.4521,-4.31143 0.3494,-1.71421 4.0394,-4.62888 19.7398,-15.59219 3.2212,-2.24926 8.6375,-6.92989 12.0363,-10.4014 l 6.1797,-6.31184 7.0296,2.74212 c 3.8663,1.50815 7.6649,3.19286 8.4413,3.74378 2.6875,1.90705 24.4065,8.90193 24.4065,7.86044 0,-0.5752 2.1615,-4.05272 4.8033,-7.72782 2.6419,-3.67508 4.8034,-7.30046 4.8034,-8.05636 0,-2.0428 7.2435,-15.79044 8.3198,-15.79044 1.0198,0 2.4879,17.09037 2.4879,28.96135 0,4.90061 0.6923,8.68067 1.9787,10.80271 1.896,3.12769 1.8181,3.7227 -1.8619,14.22279 -2.1124,6.02719 -4.3859,13.85475 -5.0521,17.39457 -0.6663,3.53982 -1.9899,9.11523 -2.9415,12.38981 -2.3485,8.08234 -2.1754,13.3369 0.6717,20.37543 2.8506,7.04746 3.0481,11.59193 0.6386,14.69623 -0.9697,1.24931 -1.7802,4.75464 -1.8013,7.78963 -0.065,9.27798 -3.4622,30.03515 -7.2381,44.2148 -1.971,7.40143 -4.4539,17.14324 -5.5178,21.64846 -1.0637,4.50522 -2.9605,10.44339 -4.2149,13.1959 -2.6594,5.83502 -2.9189,13.97008 -0.5434,17.02428 2.3993,3.08464 22.4193,4.2419 28.359,1.6393 6.3389,-2.77751 21.6792,-3.65348 26.8822,-1.53503 2.3514,0.95737 7.6501,2.05456 11.7751,2.4382 4.1248,0.38365 10.9166,1.26629 15.0928,1.96141 5.4511,0.90738 7.9602,0.90587 8.8953,-0.006 1.6075,-1.56644 -0.8471,-4.87896 -3.6153,-4.87896 -1.014,0 -4.5953,-2.05467 -7.9587,-4.56595 -3.3633,-2.51126 -8.0064,-5.39689 -10.318,-6.4125 -2.3117,-1.01561 -5.0137,-2.33484 -6.0043,-2.93162 -0.9907,-0.5968 -3.9628,-1.65205 -6.6047,-2.34501 -2.8188,-0.73939 -7.0817,-3.37307 -10.318,-6.37453 -5.0947,-4.72508 -5.5743,-5.67099 -6.2983,-12.4202 -0.6142,-5.72654 -0.1108,-10.12634 2.3288,-20.35587 3.5667,-14.95565 7.5617,-27.4665 9.0583,-28.36783 0.5645,-0.33913 1.0263,-1.58526 1.0263,-2.76837 0,-1.18312 1.8147,-5.75965 4.0328,-10.17009 4.4972,-8.94242 10.3773,-26.48643 10.3773,-30.96209 0,-4.2719 4.5427,-24.01776 7.2581,-31.54848 1.2917,-3.58267 2.3487,-8.91433 2.3487,-11.84814 0,-13.91798 2.0571,-15.60666 17.125,-14.05822 l 9.6086,0.98742 -1.0582,-16.46371 c -0.582,-9.05504 -0.8811,-26.73209 -0.6646,-39.28235 0.2164,-12.55026 -0.1862,-35.82527 -0.8949,-51.72225 -1.1994,-26.90555 -2.0297,-33.62034 -6.7718,-54.76478 -0.9383,-4.18341 -1.3684,-8.82969 -0.9559,-10.32505 0.9715,-3.52229 -1.6913,-11.59149 -5.2142,-15.8014 -2.6694,-3.18982 -2.7681,-4.08416 -2.7681,-25.07594 0,-21.08812 0.5095,-25.06991 4.3471,-33.96841 0.9113,-2.11355 1.6571,-4.97581 1.6571,-6.36061 0,-1.38479 1.0059,-3.6049 2.2353,-4.93359 2.84,-3.06917 4.9698,-9.2272 4.9698,-14.36922 0,-5.65944 1.8324,-8.32184 7.1562,-10.39763 3.1948,-1.24567 6.2413,-3.95777 9.8099,-8.73321 5.0307,-6.73181 5.2182,-6.85276 6.6714,-4.30371 0.8223,1.44249 1.5143,3.57829 1.5377,4.74618 0.1045,5.2162 9.9213,25.04691 17.0263,34.39469 3.5183,4.62874 4.6315,7.19265 4.6315,10.66725 0,5.73433 7.5911,28.32764 10.1242,30.13263 1.0363,0.73839 1.8842,1.88213 1.8842,2.54166 0,0.65953 1.486,2.09713 3.3023,3.19467 1.8163,1.09753 6.9673,5.74707 11.4468,10.33231 7.0906,7.258 8.0498,8.75682 7.4129,11.58279 -0.4024,1.78531 -1.2305,3.54642 -1.8401,3.91359 -2.0435,1.23073 -1.2781,9.68213 0.9889,10.91839 1.8318,0.99899 1.9105,1.6259 0.622,4.9527 -1.195,3.08469 -1.164,4.41749 0.163,7.0094 0.9281,1.81284 1.1858,3.6415 0.5944,4.21771 -1.1967,1.16621 4.3394,9.70705 6.2921,9.70705 0.7019,0 2.979,-0.75933 5.0602,-1.68738 2.0812,-0.92805 5.1076,-1.84957 6.7254,-2.04782 1.8384,-0.22529 3.8131,-1.81927 5.2662,-4.25061 2.0783,-3.47726 2.1831,-4.65723 0.9878,-11.11679 -1.8702,-10.10632 -3.7201,-16.89352 -6.2755,-23.02413 -1.2072,-2.89622 -2.5415,-10.00511 -2.9651,-15.79753 -1.0921,-14.93137 -5.6916,-34.3181 -9.9905,-42.1094 -1.4152,-2.56489 -2.5731,-5.29934 -2.5731,-6.07659 0,-1.84833 -4.5101,-9.53516 -7.7734,-13.24882 -6.2174,-7.07519 -8.6679,-12.29637 -9.337,-19.89319 -0.7006,-7.95441 -6.679,-22.71311 -10.2238,-25.2389 -1.0194,-0.72637 -1.4566,-1.94536 -0.9719,-2.70963 1.8281,-2.8823 2.9301,-16.06549 1.9676,-23.53584 -1.3653,-10.59569 -5.9871,-19.59353 -12.324,-23.9927 -8.5359,-5.92582 -19.2842,-11.11677 -23.0181,-11.11677 -2.4507,0 -4.5741,-1.11653 -6.852,-3.60277 -1.8154,-1.98152 -5.3762,-4.25609 -7.9126,-5.05459 -2.5365,-0.79852 -7.9714,-2.99501 -12.0774,-4.8811 -7.0653,-3.2454 -7.4652,-3.64884 -7.4576,-7.52491 0,-2.2526 0.8475,-8.04503 1.8735,-12.87206 1.026,-4.82702 2.128,-12.59414 2.4488,-17.26026 0.5895,-8.57168 1.1459,-9.62321 3.7494,-7.0861 1.112,1.08357 2.01,0.79577 3.9948,-1.2803 2.2193,-2.32138 2.4562,-3.54169 1.7783,-9.16239 -0.9291,-7.7036 -1.3447,-8.50788 -4.3962,-8.50788 -1.9502,0 -2.3309,-0.83173 -2.3309,-5.09122 0,-2.80017 -0.6251,-6.8812 -1.3892,-9.06895 -1.6405,-4.69681 -12.2115,-15.09451 -15.3463,-15.09451 -1.2012,0 -2.8566,-0.78988 -3.6789,-1.75528 -2.5627,-3.00908 -15.1918,-2.31294 -22.51,1.24081 -13.6839,6.64486 -19.5306,16.62377 -17.7728,30.33378 0.7612,5.93663 0.6709,6.24144 -1.6719,5.64443 -2.2948,-0.58479 -2.4753,-0.12757 -2.4601,6.23397 0.022,8.92178 0.9682,12.1309 3.5792,12.1309 3.3845,0 4.4416,2.35498 5.2805,11.7642 0.7345,8.23906 0.5992,9.01154 -1.9942,11.38576 -1.5303,1.40087 -4.6503,3.16478 -6.9336,3.91977 -2.2831,0.75501 -5.5022,2.28379 -7.1534,3.3973 -1.6511,1.11352 -6.3581,2.85981 -10.46,3.88065 -4.1019,1.02085 -10.3162,3.39282 -13.8098,5.27105 -4.4334,2.38361 -8.8162,3.6429 -14.5119,4.16972 -10.1336,0.93725 -18.7986,4.18442 -24.3851,9.13828 -5.1122,4.53326 -11.9855,16.1647 -13.1192,22.20164 -0.5351,2.84903 -1.9021,5.02247 -3.9931,6.34883 -4.7659,3.02299 -18.7524,16.90802 -21.0672,20.91418 -2.4921,4.31297 -7.3326,10.90687 -10.3084,14.04224 -1.2217,1.28721 -3.6902,5.49988 -5.4856,9.3615 -1.7955,3.86162 -5.6128,11.06436 -8.4828,16.0061 l -5.2184,8.98496 1.8905,4.47218 c 6.1858,14.63405 13.8071,30.03257 16.4779,33.29332 1.4278,1.74303 3.9468,5.37031 5.5979,8.06063 3.2494,5.29436 25.6443,26.97708 33.8344,32.75856 2.7738,1.95801 6.3235,5.65203 7.8882,8.20894 1.5646,2.5569 3.3778,4.64891 4.0291,4.64891 0.6513,0 3.7839,2.36963 6.9614,5.26585 3.1774,2.89621 6.6005,5.26584 7.6069,5.26584 3.3185,0 4.5661,2.73602 2.689,5.89665 -4.2745,7.19728 -9.1065,17.50986 -9.1178,19.45922 -0.011,1.17894 0.679,7.60338 1.5239,14.27656 l 1.5361,12.13302 -3.5124,2.94412 c -2.941,2.46514 -3.6375,4.12254 -4.2817,10.18714 -0.5757,5.41955 -1.8667,8.98883 -5.1282,14.17753 -2.3973,3.81397 -5.2445,8.77756 -6.3269,11.03017 -1.0823,2.25261 -2.4441,4.88553 -3.026,5.85093 -0.5819,0.96541 -1.5439,2.83814 -2.1378,4.16162 -0.594,1.32348 -2.373,3.95641 -3.9535,5.85094 -1.5804,1.89453 -3.8643,5.65478 -5.0752,8.35614 -1.3685,3.05276 -3.106,5.04564 -4.591,5.26585 -1.6474,0.2443 -3.1102,2.24401 -4.7119,6.44157 -2.7336,7.16366 -6.2709,11.23492 -24.4496,28.14069 -4.3254,4.02251 -8.2917,7.31367 -8.814,7.31367 -2.045,0 -10.6546,9.02575 -12.8367,13.45716 -1.2677,2.5744 -3.1672,5.73391 -4.221,7.02112 -1.0538,1.2872 -3.1182,5.23658 -4.5874,8.7764 -1.4693,3.53982 -3.4097,8.01578 -4.312,9.94659 -2.864,6.12774 -5.0965,11.57578 -6.4773,15.80638 -0.7369,2.25749 -2.6921,5.52565 -4.3448,7.2626 -1.6529,1.73695 -3.0051,3.54265 -3.0051,4.01269 0,1.1258 -10.4721,23.57471 -12.75,27.33203 -0.9755,1.609 -2.8026,5.14749 -4.0603,7.86331 -3.1209,6.73932 -11.4483,15.27116 -17.7004,18.13497 -6.6227,3.0336 -9.9205,7.1457 -9.9205,12.37026 0,4.40301 -4.2971,14.25426 -9.551,21.89609 -4.5253,6.58196 -7.0297,12.2218 -7.969,17.94539 -0.4445,2.70883 -1.2776,5.20783 -1.8513,5.55335 -1.6837,1.01402 -1.1971,2.83048 0.7582,2.83048 1.1208,0 1.8013,1.10517 1.8013,2.92546 0,1.91842 0.6706,2.92546 1.9483,2.92546 1.6539,0 1.7061,0.28435 0.3455,1.88192 -1.3571,1.59349 -1.2779,2.11341 0.517,3.39237 1.4069,1.00243 1.6366,1.66742 0.6831,1.97713 -1.1092,0.36032 -1.1012,1.07742 0.035,3.14639 1.1138,2.02813 2.1573,2.51203 4.2913,1.99008 2.273,-0.55591 2.8942,-0.17877 3.2037,1.9451 0.398,2.73125 3.4152,3.53383 9.0901,2.41808 z m 157.8855,-397.31613 c -6.015,-5.50065 -8.5281,-8.51445 -13.4487,-16.12834 -2.2877,-3.53982 -4.5264,-6.69932 -4.9749,-7.02112 -1.8031,-1.29374 -10.6749,-19.00694 -10.724,-21.41151 -0.029,-1.41754 -0.8643,-4.68367 -1.8562,-7.25807 -1.6666,-4.32554 -5.2962,-16.39397 -5.2962,-17.60991 0,-0.2904 0.9456,-0.52842 2.1015,-0.52892 3.8454,-8.7e-4 16.585,-6.6472 18.6607,-9.73413 2.9229,-4.34706 11.8604,-12.49849 13.7038,-12.49849 0.8576,0 1.5593,0.77573 1.5593,1.72386 0,0.94814 1.3731,3.97599 3.0511,6.72858 5.6473,9.26291 7.9452,15.09098 8.5828,21.76771 0.3488,3.6524 1.9266,10.22656 3.5065,14.60923 1.5798,4.38269 2.8723,8.87351 2.8723,9.97961 0,1.10611 1.8018,5.68234 4.0039,10.1694 2.2022,4.48706 4.3419,10.20541 4.7547,12.70743 0.7064,4.28013 0.3581,4.97205 -5.8895,11.70187 -3.6521,3.934 -7.8018,7.75976 -9.2215,8.50171 -2.9387,1.53577 -4.1221,0.94345 -11.3856,-5.69891 z"
       style="fill:#000000;stroke-width:1.18541658" />
  </g>
</svg>
